 <svg class="bg" width="100%" height="100%" viewBox="0 0 1768 1768" version="1.1" xmlns="http://www.w3.org/2000/svg" xmlns:xlink="http://www.w3.org/1999/xlink" xml:space="preserve" style="fill-rule:evenodd;clip-rule:evenodd;stroke-linejoin:round;stroke-miterlimit:1.41421;">
      <g transform="matrix(0.75,0,0,0.75,-0,-0)">
          <g transform="matrix(4.16667,0,0,4.16667,-460.792,-488.583)">
              <path d="M189.71,596.17l0.018,0.011l-0.001,0.006l-0.017,-0.017Z" style="fill:#00909d;"/>
              <path d="M639.81,261.39c23.094,40.973 36.25,88.247 36.25,138.61c0,68.985 -24.703,132.2 -65.75,181.28c-1.287,-4.628 -2.725,-9.194 -4.317,-13.697l33.817,-306.193Z" style="fill:#00909d;"/>
              <path d="M229.907,507.955l-0.79,-0.701c0,0 18.898,-76.249 47.242,-139.918c20.328,-45.65 45.516,-84.82 72.066,-84.82c24.661,0 48.147,33.798 67.651,75.196c10.492,22.261 19.831,46.716 27.585,69.287c-13.595,-2.678 -27.653,-4.072 -42.036,-4.06c-69.97,0.061 -132.2,33.395 -171.718,85.016Z" style="fill:#00909d;"/>
              <path d="M111.843,373.339c0.345,-3.785 0.774,-7.543 1.277,-11.279c18.53,-138.21 136.93,-244.8 280.21,-244.8c51.263,0 99.335,13.644 140.799,37.5l3.991,2.34l-425,204.96c-0.503,3.736 -0.932,7.494 -1.277,11.279Z" style="fill:#00909d;"/>
              <path d="M116.756,459.005c11.169,52.612 36.976,99.821 72.954,137.165c-36.742,-38.138 -62.876,-86.563 -73.647,-140.531l0.693,3.366Z" style="fill:#009aa6;"/>
              <path d="M542.065,159.501c40.556,25.141 74.283,60.245 97.745,101.889l-33.817,306.193c-25.116,-71.436 -86.695,-125.75 -162.332,-140.584c-7.754,-22.571 -17.093,-47.026 -27.585,-69.287c-19.504,-41.398 -42.99,-75.196 -67.651,-75.196c-26.55,0 -51.738,39.17 -72.066,84.82c-28.344,63.669 -47.242,139.918 -47.242,139.918l0.79,0.701c-19.558,25.531 -33.553,55.543 -40.179,88.226l-0.018,-0.011c-48.99,-50.85 -79.12,-119.99 -79.12,-196.17c0,-8.996 0.42,-17.889 1.253,-26.661c0.345,-3.785 0.774,-7.543 1.277,-11.279l425,-204.96l3.945,2.401Z" style="fill:#009aa6;"/>
              <path d="M229.117,507.254l119.308,119.307l119.307,-119.307c0,0 -20.867,-84.213 -51.656,-149.542c-19.505,-41.398 -42.991,-75.196 -67.651,-75.196c-26.55,0 -51.738,39.17 -72.066,84.82c-28.344,63.669 -47.242,139.918 -47.242,139.918Z" style="fill:#267c84;fill-rule:nonzero;"/>
              <path d="M276.359,367.336c0.352,0.027 0.717,0.027 1.081,0.027c62.549,0 54.963,-36.93 79.259,-36.93c24.296,0 14.78,17.587 43.126,27.036c6.439,2.146 11.797,1.903 16.251,0.243c-19.505,-41.398 -42.991,-75.196 -67.651,-75.196c-26.55,0 -51.738,39.17 -72.066,84.82Z" style="fill:#ded5ce;fill-rule:nonzero;"/>
              <path d="M348.425,626.561l119.307,-119.307l-119.307,119.307ZM416.076,357.712c-19.505,-41.398 -42.991,-75.196 -67.651,-75.196c24.661,0 48.147,33.798 67.651,75.196Z" style="fill:#00b8c5;fill-rule:nonzero;"/>
              <path d="M348.425,626.561l0,-294.327c2.351,-1.142 5.028,-1.801 8.274,-1.801c24.296,0 14.78,17.587 43.126,27.036c3.219,1.073 6.169,1.549 8.87,1.549c2.701,0 5.154,-0.476 7.381,-1.306c30.789,65.329 51.656,149.542 51.656,149.542l-119.307,119.307Z" style="fill:#93b5b7;fill-rule:nonzero;"/>
              <path d="M408.695,359.018c-2.701,0 -5.651,-0.476 -8.87,-1.549c-28.346,-9.449 -18.83,-27.036 -43.126,-27.036c-3.246,0 -5.923,0.659 -8.274,1.801l0,-49.718c24.66,0 48.146,33.798 67.651,75.196c-2.227,0.83 -4.68,1.306 -7.381,1.306Z" style="fill:#ede8e5;fill-rule:nonzero;"/>
              <g transform="matrix(-0.000233224,-0.268444,0.268444,-0.000233224,401.813,639.339)">
                  <path d="M161.436,-789.918c367.654,74.834 644.692,400.278 644.692,789.918c0,370.242 -250.14,682.521 -590.523,776.873c-89.317,-74.826 -166.036,-164.194 -226.52,-264.461c-66.585,-110.36 -113.489,-233.964 -135.837,-365.929c-4.929,-28.949 -8.666,-58.269 -11.136,-87.961c-2.508,-29.767 -3.785,-59.867 -3.759,-90.264c0.259,-297.87 124.142,-566.769 323.083,-758.176Z" style="fill:#7dc242;"/>
              </g>
              <rect x="459.831" y="417.872" width="15.771" height="32.72" style="fill:#784a26;fill-rule:nonzero;"/>
              <path d="M415.031,369.259c-0.093,26.568 14.599,57.057 51.893,57.057c0.266,0 0.528,0 0.795,-0.006c39.262,-0.409 52.68,-31.15 52.68,-60.978c0,-40.143 -39.972,-100.993 -52.68,-103.575c-0.281,-0.063 -0.542,-0.091 -0.795,-0.091c-12.194,0 -51.725,62.124 -51.893,107.593Z" style="fill:#67ac45;fill-rule:nonzero;"/>
              <path d="M467.719,261.757l0,164.553c39.262,-0.409 52.68,-31.15 52.68,-60.978c0,-40.143 -39.972,-100.993 -52.68,-103.575Z" style="fill:#b3d677;fill-rule:nonzero;"/>
              <rect x="407.978" y="481.688" width="12.512" height="25.961" style="fill:#784a26;fill-rule:nonzero;"/>
              <path d="M372.426,443.111c-0.072,21.083 11.585,45.278 41.179,45.278c0.211,0 0.418,0 0.63,-0.006c31.156,-0.325 41.804,-24.72 41.804,-48.388c0,-31.853 -31.721,-80.141 -41.804,-82.19c-0.222,-0.05 -0.429,-0.072 -0.63,-0.072c-9.676,0 -41.046,49.296 -41.179,85.378Z" style="fill:#67ac45;fill-rule:nonzero;"/>
              <path d="M414.235,357.805l0,130.578c31.156,-0.325 41.804,-24.72 41.804,-48.388c0,-31.853 -31.721,-80.141 -41.804,-82.19Z" style="fill:#b3d677;fill-rule:nonzero;"/>
              <rect x="214.303" y="530.681" width="12.512" height="25.962" style="fill:#784a26;fill-rule:nonzero;"/>
              <path d="M178.751,492.104c-0.072,21.084 11.585,45.278 41.18,45.278c0.211,0 0.418,0 0.63,-0.006c31.155,-0.325 41.803,-24.72 41.803,-48.388c0,-31.853 -31.72,-80.14 -41.803,-82.189c-0.223,-0.051 -0.43,-0.072 -0.63,-0.072c-9.677,0 -41.047,49.295 -41.18,85.377Z" style="fill:#67ac45;fill-rule:nonzero;"/>
              <path d="M220.561,406.799l0,130.577c31.155,-0.325 41.803,-24.72 41.803,-48.388c0,-31.853 -31.72,-80.14 -41.803,-82.189Z" style="fill:#b3d677;fill-rule:nonzero;"/>
              <rect x="276.024" y="540.278" width="12.514" height="25.962" style="fill:#784a26;fill-rule:nonzero;"/>
              <path d="M282.281,416.395l0,130.58c19.239,-0.201 35.864,-9.05 41.784,-21.76l-0.01,-0.01l-14.625,-28.24l14.631,0l0,-0.04l-23.881,-37.96l13.271,0c-1.354,0 -31.17,-42.57 -31.17,-42.57Z" style="fill:#b3d677;fill-rule:nonzero;"/>
              <path d="M282.281,416.395l0,130.58c-19.239,-0.201 -35.864,-9.05 -41.784,-21.76l0.009,-0.01l14.625,-28.24l-14.631,0l0,-0.04l23.881,-37.96l-13.27,0c1.353,0 31.17,-42.57 31.17,-42.57Z" style="fill:#218342;fill-rule:nonzero;"/>
              <rect x="517.511" y="458.284" width="12.513" height="25.962" style="fill:#784a26;fill-rule:nonzero;"/>
              <path d="M523.768,334.4l0,130.58c19.239,-0.2 35.864,-9.049 41.784,-21.759l-0.01,-0.01l-14.625,-28.24l14.631,0l0,-0.04l-23.881,-37.96l13.271,0c-1.353,0 -31.17,-42.571 -31.17,-42.571Z" style="fill:#b3d677;fill-rule:nonzero;"/>
              <path d="M523.768,334.4l0,130.58c-19.24,-0.2 -35.865,-9.049 -41.785,-21.759l0.01,-0.01l14.625,-28.24l-14.631,0l0,-0.04l23.881,-37.96l-13.269,0c1.353,0 31.169,-42.571 31.169,-42.571Z" style="fill:#218342;fill-rule:nonzero;"/>
          </g>
      </g>
  </svg>

  <!-- SUN -->
  <svg class="sun" width="100%" height="100%" viewBox="0 0 457 457" version="1.1" xmlns="http://www.w3.org/2000/svg" xmlns:xlink="http://www.w3.org/1999/xlink" xml:space="preserve" style="fill-rule:evenodd;clip-rule:evenodd;stroke-linejoin:round;stroke-miterlimit:1.41421;">
      <g transform="matrix(0.75,0,0,0.75,-0,-0)">
          <g transform="matrix(4.16667,0,0,4.16667,-2107.96,-606.604)">
              <path d="M644.318,223.198c-0.188,2.726 -0.541,5.426 -1.041,8.058l7.534,2.011l-2.335,8.692l-7.533,-2.01c-0.89,2.577 -1.917,5.088 -3.104,7.505l6.749,3.9l-4.495,7.788l-6.749,-3.887c-1.526,2.241 -3.186,4.387 -4.967,6.425l5.534,5.534l-6.37,6.357l-5.522,-5.52c-2.051,1.768 -4.184,3.441 -6.438,4.968l3.9,6.748l-7.801,4.495l-3.886,-6.749c-2.432,1.188 -4.94,2.213 -7.519,3.105l2.024,7.531l-8.693,2.335l-2.024,-7.532c-2.633,0.5 -5.317,0.851 -8.059,1.04l0,7.815l-9.002,0l0,-7.815c-2.728,-0.189 -5.427,-0.54 -8.058,-1.04l-2.012,7.532l-8.693,-2.335l2.012,-7.531c-2.579,-0.892 -5.088,-1.917 -7.505,-3.105l-3.901,6.749l-7.788,-4.495l3.887,-6.763c-2.253,-1.512 -4.386,-3.185 -6.425,-4.953l-5.535,5.52l-6.357,-6.357l5.521,-5.534c-1.781,-2.038 -3.441,-4.184 -4.967,-6.425l-6.749,3.887l-4.495,-7.788l6.749,-3.9c-1.187,-2.417 -2.213,-4.928 -3.103,-7.505l-7.534,2.01l-2.333,-8.692l7.545,-2.011c-0.513,-2.632 -0.866,-5.332 -1.054,-8.058l-7.815,0l0,-9.003l7.815,0c0.188,-2.741 0.541,-5.426 1.054,-8.059l-7.545,-2.025l2.333,-8.678l7.534,2.01c0.89,-2.578 1.916,-5.088 3.103,-7.505l-6.749,-3.899l4.495,-7.789l6.762,3.887c1.513,-2.241 3.186,-4.387 4.968,-6.425l-5.535,-5.534l6.357,-6.358l5.535,5.522c2.039,-1.769 4.185,-3.443 6.439,-4.954l-3.901,-6.763l7.788,-4.495l3.901,6.749c2.417,-1.188 4.926,-2.213 7.505,-3.105l-2.012,-7.531l8.693,-2.335l2.012,7.545c2.631,-0.513 5.33,-0.864 8.058,-1.053l0,-7.815l9.002,0l0,7.815c2.727,0.189 5.426,0.54 8.059,1.053l2.011,-7.545l8.693,2.322l-2.011,7.544c2.579,0.892 5.087,1.917 7.504,3.105l3.901,-6.749l7.788,4.495l-3.901,6.749c2.255,1.525 4.401,3.185 6.439,4.968l5.535,-5.535l6.356,6.371l-5.52,5.534c1.769,2.038 3.441,4.171 4.954,6.425l6.762,-3.901l4.495,7.803l-6.749,3.886c1.187,2.43 2.214,4.94 3.104,7.518l7.533,-2.024l2.335,8.692l-7.546,2.025c0.512,2.633 0.865,5.318 1.053,8.059l7.815,0l0,9.003l-7.815,0Z" style="fill:#faf199;fill-rule:nonzero;"/>
              <path d="M579.022,145.585l0,146.222l4.508,0l0,-7.815c2.728,-0.189 5.427,-0.54 8.058,-1.04l2.012,7.532l8.693,-2.335l-2.012,-7.531c2.578,-0.892 5.088,-1.917 7.505,-3.105l3.901,6.749l7.788,-4.495l-3.887,-6.763c2.253,-1.512 4.386,-3.185 6.425,-4.953l5.535,5.52l6.356,-6.357l-5.52,-5.534c1.781,-2.038 3.441,-4.184 4.967,-6.425l6.749,3.887l4.495,-7.788l-6.749,-3.9c1.187,-2.417 2.213,-4.928 3.103,-7.505l7.533,2.01l2.333,-8.692l-7.544,-2.011c0.513,-2.632 0.866,-5.332 1.054,-8.058l7.815,0l0,-9.003l-7.815,0c-0.188,-2.741 -0.541,-5.426 -1.054,-8.059l7.544,-2.025l-2.333,-8.678l-7.533,2.01c-0.89,-2.578 -1.916,-5.088 -3.103,-7.505l6.749,-3.899l-4.495,-7.789l-6.762,3.887c-1.513,-2.241 -3.187,-4.387 -4.968,-6.425l5.534,-5.534l-6.356,-6.358l-5.535,5.522c-2.039,-1.769 -4.185,-3.443 -6.439,-4.954l3.901,-6.763l-7.788,-4.495l-3.901,6.749c-2.417,-1.188 -4.927,-2.213 -7.505,-3.105l2.012,-7.531l-8.693,-2.335l-2.012,7.545c-2.631,-0.513 -5.33,-0.864 -8.058,-1.053l0,-7.815l-4.508,0Z" style="fill:#faf199;fill-rule:nonzero;"/>
          </g>
      </g>
  </svg>

  <!-- CLOUD -->
  <div class="wrap-cloud">

    <svg class="cloud cloud-1" width="100%" height="100%" viewBox="0 0 473 233" version="1.1" xmlns="http://www.w3.org/2000/svg" xmlns:xlink="http://www.w3.org/1999/xlink" xml:space="preserve" style="fill-rule:evenodd;clip-rule:evenodd;stroke-linejoin:round;stroke-miterlimit:1.41421;">
        <g transform="matrix(0.75,0,0,0.75,-0,-0)">
            <g transform="matrix(4.16667,0,0,4.16667,-2412.59,-1407.75)">
                <path d="M716.938,385.167c-0.594,0 -1.175,0.053 -1.749,0.128c-0.304,-14.222 -11.921,-25.659 -26.216,-25.659c-2.702,0 -5.307,0.409 -7.759,1.168c-5.57,-13.467 -18.831,-22.945 -34.312,-22.945c-18.868,0 -34.438,14.082 -36.798,32.309c-2.674,-1.172 -5.627,-1.828 -8.735,-1.828c-12.027,0 -21.777,9.75 -21.777,21.777c0,12.028 9.75,21.778 21.777,21.778l41.632,0c1.282,0.133 2.584,0.205 3.901,0.205c1.319,0 2.619,-0.072 3.903,-0.205l34.943,0c1.058,0.129 2.132,0.204 3.225,0.204c1.092,0 2.168,-0.075 3.225,-0.204l24.74,0c7.379,0 13.363,-5.984 13.363,-13.364c0,-7.381 -5.984,-13.364 -13.363,-13.364Z" style="fill:#cee3dd;fill-rule:nonzero;"/>
                <path d="M645.611,337.869l0,74.221c-1.07,-0.021 -2.129,-0.09 -3.179,-0.201l-41.63,0c-12.031,0 -21.781,-9.75 -21.781,-21.78c0,-12.02 9.75,-21.77 21.781,-21.77c3.1,0 6.059,0.65 8.729,1.83c2.33,-18 17.531,-31.95 36.08,-32.3Z" style="fill:#b6d9d2;fill-rule:nonzero;"/>
            </g>
        </g>
    </svg>
    <div class='rain'>
      <div class='drop drop-1'></div>
      <div class='drop drop-2'></div>
      <div class='drop drop-3'></div>
      <div class='drop drop-4'></div>
      <div class='drop drop-5'></div>
    </div>
  </div>

  <svg class="cloud cloud-2" width="100%" height="100%" viewBox="0 0 473 233" version="1.1" xmlns="http://www.w3.org/2000/svg" xmlns:xlink="http://www.w3.org/1999/xlink" xml:space="preserve" style="fill-rule:evenodd;clip-rule:evenodd;stroke-linejoin:round;stroke-miterlimit:1.41421;">
      <g transform="matrix(0.75,0,0,0.75,-0,-0)">
          <g transform="matrix(4.16667,0,0,4.16667,-2412.59,-1407.75)">
              <path d="M716.938,385.167c-0.594,0 -1.175,0.053 -1.749,0.128c-0.304,-14.222 -11.921,-25.659 -26.216,-25.659c-2.702,0 -5.307,0.409 -7.759,1.168c-5.57,-13.467 -18.831,-22.945 -34.312,-22.945c-18.868,0 -34.438,14.082 -36.798,32.309c-2.674,-1.172 -5.627,-1.828 -8.735,-1.828c-12.027,0 -21.777,9.75 -21.777,21.777c0,12.028 9.75,21.778 21.777,21.778l41.632,0c1.282,0.133 2.584,0.205 3.901,0.205c1.319,0 2.619,-0.072 3.903,-0.205l34.943,0c1.058,0.129 2.132,0.204 3.225,0.204c1.092,0 2.168,-0.075 3.225,-0.204l24.74,0c7.379,0 13.363,-5.984 13.363,-13.364c0,-7.381 -5.984,-13.364 -13.363,-13.364Z" style="fill:#cee3dd;fill-rule:nonzero;"/>
              <path d="M645.611,337.869l0,74.221c-1.07,-0.021 -2.129,-0.09 -3.179,-0.201l-41.63,0c-12.031,0 -21.781,-9.75 -21.781,-21.78c0,-12.02 9.75,-21.77 21.781,-21.77c3.1,0 6.059,0.65 8.729,1.83c2.33,-18 17.531,-31.95 36.08,-32.3Z" style="fill:#b6d9d2;fill-rule:nonzero;"/>
          </g>
      </g>
  </svg>


  <svg class="cloud cloud-3" width="100%" height="100%" viewBox="0 0 473 233" version="1.1" xmlns="http://www.w3.org/2000/svg" xmlns:xlink="http://www.w3.org/1999/xlink" xml:space="preserve" style="fill-rule:evenodd;clip-rule:evenodd;stroke-linejoin:round;stroke-miterlimit:1.41421;">
      <g transform="matrix(0.75,0,0,0.75,-0,-0)">
          <g transform="matrix(4.16667,0,0,4.16667,-2412.59,-1407.75)">
              <path d="M716.938,385.167c-0.594,0 -1.175,0.053 -1.749,0.128c-0.304,-14.222 -11.921,-25.659 -26.216,-25.659c-2.702,0 -5.307,0.409 -7.759,1.168c-5.57,-13.467 -18.831,-22.945 -34.312,-22.945c-18.868,0 -34.438,14.082 -36.798,32.309c-2.674,-1.172 -5.627,-1.828 -8.735,-1.828c-12.027,0 -21.777,9.75 -21.777,21.777c0,12.028 9.75,21.778 21.777,21.778l41.632,0c1.282,0.133 2.584,0.205 3.901,0.205c1.319,0 2.619,-0.072 3.903,-0.205l34.943,0c1.058,0.129 2.132,0.204 3.225,0.204c1.092,0 2.168,-0.075 3.225,-0.204l24.74,0c7.379,0 13.363,-5.984 13.363,-13.364c0,-7.381 -5.984,-13.364 -13.363,-13.364Z" style="fill:#cee3dd;fill-rule:nonzero;"/>
              <path d="M645.611,337.869l0,74.221c-1.07,-0.021 -2.129,-0.09 -3.179,-0.201l-41.63,0c-12.031,0 -21.781,-9.75 -21.781,-21.78c0,-12.02 9.75,-21.77 21.781,-21.77c3.1,0 6.059,0.65 8.729,1.83c2.33,-18 17.531,-31.95 36.08,-32.3Z" style="fill:#b6d9d2;fill-rule:nonzero;"/>
          </g>
      </g>
  </svg>
