<svg height="512pt" viewBox="-43 0 512 512.00446" width="512pt" xmlns="http://www.w3.org/2000/svg"><path d="m82.035156 163.222656c2.691406-2.648437 5.515625-5.152344 8.464844-7.507812 3.523438-3.003906 4.011719-8.269532 1.097656-11.867188-2.914062-3.597656-8.164062-4.21875-11.832031-1.394531-3.417969 2.726563-6.6875 5.632813-9.796875 8.703125-2.21875 2.140625-3.109375 5.316406-2.328125 8.296875.78125 2.984375 3.109375 5.316406 6.09375 6.097656s6.15625-.109375 8.300781-2.328125zm0 0"/><path d="m12.007812 50.515625c15.449219-6.097656 32.390626-7.308594 48.546876-3.476563-4.9375.410157-9.78125 1.585938-14.359376 3.484376-28.585937 11.972656-37 48.46875-37.34375 50.03125-1.015624 4.589843 1.871094 9.140624 6.460938 10.171874.613281.136719 1.238281.207032 1.867188.210938 3.992187.003906 7.453124-2.761719 8.328124-6.65625.0625-.289062 6.914063-29.53125 27.308594-38.03125 9.046875-3.289062 19.003906-3.027344 27.871094.726562-20.292969 9.957032-49.085938 33.140626-54.921875 85.691407-.519531 4.683593 2.859375 8.902343 7.542969 9.417969 4.683594.519531 8.902344-2.859376 9.421875-7.542969 5.769531-51.898438 36.238281-69.578125 51.839843-75.289063 2.117188 19.191406 9.777344 34.527344 20.539063 56.039063 6.144531 12.296875 13.789063 27.589843 22.230469 47.273437 20.480468 47.789063 18.21875 119.679688 16.894531 142.34375h-135.84375c-4.988281-44.015625 5.578125-88.390625 29.867187-125.4375 1.058594-1.707031 2.203126-3.347656 3.339844-4.984375l1.347656-1.953125c1.714844-2.523437 1.957032-5.765625.628907-8.515625-1.324219-2.746093-4.011719-4.578125-7.054688-4.804687-3.042969-.222656-5.972656 1.191406-7.691406 3.710937l-1.277344 1.859375c-1.28125 1.859375-2.5625 3.730469-3.660156 5.496094-36.621094 56.027344-43.921875 126.289062-19.609375 188.648438.074219.203124.144531.398437.238281.59375 13.554688 34.296874 35.925781 64.402343 64.851563 87.273437.324218.296875.671875.566406 1.042968.808594 75.652344 59.199219 181.917969 59.199219 257.570313 0 .367187-.242188.714844-.511719 1.039063-.808594 28.925781-22.871094 51.300781-52.976563 64.855468-87.273437.09375-.195313.160156-.390626.238282-.59375 17.429687-44.683594 18.816406-94.03125 3.925781-139.625-1.472657-4.476563-6.296875-6.910157-10.773438-5.4375-4.476562 1.472656-6.914062 6.292968-5.441406 10.773437 6.246094 19.058594 9.417969 38.992187 9.386719 59.046875-.011719 7.09375-.414063 14.179688-1.210938 21.222656h-59.410156c.554688-3.023437.839844-6.09375.855469-9.171875 0-28.277343-22.925781-51.199219-51.203125-51.199219s-51.199219 22.921876-51.199219 51.199219c.015625 3.078125.300781 6.148438.855469 9.171875h-38.519532c10.878907-30.027344 27.550782-67.148437 50.054688-92.105468 14.335938-15.855469 26.511719-27.828126 36.300781-37.453126 17.179688-16.878906 29.421875-28.921874 37.632813-46.441406 12.9375 10.472656 36.027344 37.054688 24.746094 88.015625-.871094 4.535157 2.023437 8.945313 6.535156 9.941407 4.511718 1 9-1.773438 10.121094-6.257813 11.445312-51.589844-8.292969-82.832031-24.277344-98.832031 9.59375-.679688 19.089844 2.289062 26.589844 8.3125 16.5625 14.644531 13.585937 44.527344 13.550781 44.824218-.496094 4.671876 2.875 8.867188 7.542969 9.386719.320312.042969.636718.0625.957031.0625 4.34375-.011719 7.988281-3.28125 8.464843-7.597656.179688-1.578125 4.027344-38.84375-19.132812-59.40625-3.640625-3.222656-7.757812-5.867187-12.199219-7.84375 16.410157 1.683594 31.933594 8.269531 44.550781 18.902344 3.527344 2.867187 8.6875 2.46875 11.730469-.914063 3.039063-3.378906 2.894531-8.554687-.328125-11.757812-19.945312-17.652344-46.585937-25.753906-72.980468-22.1875 12.777343-8.386719 28.5625-10.824219 43.273437-6.691406 4.464844 1.515624 9.308594-.875 10.824219-5.335938 1.515625-4.464844-.875-9.308594-5.335938-10.824219-21.96875-6.25-45.601562-1.617187-63.589844 12.457031-1.730468-16.164062-9.792968-30.984374-22.425781-41.214843-2.285156-2.183594-5.585937-2.925781-8.585937-1.933594-2.996094.996094-5.203125 3.566406-5.726563 6.679687-.527343 3.117188.710938 6.265626 3.21875 8.191407 10.121094 7.980469 16.234375 19.996093 16.734375 32.878906-4.714844-7.367187-11.203125-13.425781-18.875-17.621094-29.082031-15.941406-66.945312-1.171875-68.542968-.523437-4.253907 1.824218-6.28125 6.707031-4.566407 11.007812 1.714844 4.300782 6.550781 6.449219 10.890625 4.839844.316406-.128906 31.898438-12.476562 54.015625-.359375 5.804688 3.292969 10.582031 8.132813 13.800781 13.976563-38.273437-12.277344-73.679687 13.902343-88.816406 32.316406-1.9375 2.355468-2.472656 5.566406-1.402344 8.421875 1.074219 2.855469 3.585938 4.921875 6.59375 5.421875 3.007813.5 6.054688-.640625 7.992188-2.996094 1.613281-1.964844 38.398438-45.628906 80.144531-22.632812-6.824219 15.824218-17.433593 26.277343-35.054687 43.597656-9.941406 9.78125-22.324219 21.949218-37.007813 38.179687-25.832031 28.664063-44.160156 71.125-55.46875 103.550781h-11.945312c1.46875-24.984374 3.507812-98.132812-18.339844-149.066406-8.625-20.140625-16.398437-35.6875-22.644531-48.179687-11.070313-22.101563-17.648438-35.414063-19.066406-52.601563 46.722656-8.191406 67.621093 44.972656 68.523437 47.351563 1.71875 4.3125 6.566406 6.460937 10.914063 4.835937 4.347656-1.625 6.601562-6.425781 5.070312-10.808594-8.378906-22.339843-33.441406-58.632812-73.730469-59.316406 4.964844-4.496094 11.074219-7.527344 17.65625-8.753906 24.707031-4.265625 50.808594 17.605469 51.074219 17.816406 3.589844 2.917969 8.851562 2.441406 11.863281-1.074218 3.007813-3.515626 2.667969-8.789063-.769531-11.886719-1.308594-1.117188-32.367188-27.375-65.027344-21.675781-8.613281 1.488281-16.714844 5.121093-23.558594 10.558593 4.636719-12.019531 14.304688-21.402343 26.453126-25.679687 4.378906-1.746094 6.511718-6.714844 4.761718-11.09375-1.75-4.375-6.714844-6.507813-11.09375-4.761719-15.265625 5.597656-27.6875 17.015625-34.550781 31.753906-12.46875-19.136719-33.332031-31.160156-56.140625-32.35937475-4.714844-.01171875-8.542969 3.80078175-8.554688 8.51171875-.011718 4.714844 3.796876 8.542969 8.511719 8.554687 15.269531.84375 29.425781 8.265626 38.800781 20.34375-23.835937-11.902343-51.671874-12.835937-76.253906-2.558593-2.84375 1.171875-4.839844 3.785156-5.2187498 6.839843-.3789062 3.054688.9179688 6.074219 3.3906248 7.90625 2.472657 1.832032 5.742188 2.191407 8.550781.9375zm356.746094 359.414063h-319.144531c-5.441406-8.101563-10.257813-16.605469-14.40625-25.4375h347.945313c-4.144532 8.832031-8.957032 17.335937-14.394532 25.4375zm-255.0625 59.570312h190.984375c-59.148437 33.910156-131.84375 33.910156-190.992187 0zm215.996094-17.066406h-241.007812c-9.480469-7.640625-18.21875-16.15625-26.101563-25.4375h293.207031c-7.882812 9.28125-16.625 17.796875-26.105468 25.4375zm60.503906-85.007813h-362.011718c-2.964844-8.304687-5.347657-16.808593-7.125-25.449219h376.253906c-1.777344 8.640626-4.160156 17.144532-7.128906 25.449219zm-134.078125-51.6875c0-18.851562 15.28125-34.132812 34.132813-34.132812 18.851562 0 34.132812 15.28125 34.132812 34.132812-.050781 3.105469-.515625 6.191407-1.390625 9.171875h-65.484375c-.871094-2.980468-1.339844-6.066406-1.390625-9.171875zm0 0"/></svg>