<?xml version="1.0" encoding="iso-8859-1"?>
<!-- Generator: Adobe Illustrator 18.0.0, SVG Export Plug-In . SVG Version: 6.00 Build 0)  -->
<!DOCTYPE svg PUBLIC "-//W3C//DTD SVG 1.1//EN" "http://www.w3.org/Graphics/SVG/1.1/DTD/svg11.dtd">
<svg version="1.1" id="Capa_1" xmlns="http://www.w3.org/2000/svg" xmlns:xlink="http://www.w3.org/1999/xlink" x="0px" y="0px"
	 viewBox="0 0 442.556 442.556" style="enable-background:new 0 0 442.556 442.556;" xml:space="preserve">
<g>
	<path d="M84.355,85.534l-33.133,19.084c-6.479,3.732-8.715,12.041-4.982,18.523l19.084,33.131c1.852,3.213,5.215,5.012,8.676,5.012
		c1.691,0,3.408-0.432,4.98-1.338c4.787-2.756,6.432-8.871,3.674-13.656l-15.871-27.553l27.555-15.873
		c4.785-2.758,6.43-8.871,3.674-13.656C95.256,84.422,89.143,82.774,84.355,85.534z"/>
	<path d="M439.563,186.835l-73.24-132.881c-6.426-11.654-21.135-15.912-32.789-9.486l-108.645,59.881l-48.354-83.941
		c-6.643-11.531-21.432-15.51-32.963-8.867L12.1,87.274c-5.586,3.219-9.586,8.42-11.26,14.645
		c-1.676,6.227-0.826,12.732,2.393,18.318L78.965,251.71c4.463,7.748,12.598,12.084,20.955,12.084c4.084,0,8.223-1.035,12.008-3.217
		l10.51-6.053L83.85,311.616c-3.609,5.34-4.924,11.767-3.699,18.098c1.225,6.332,4.84,11.805,10.182,15.414l125.707,84.963
		c4.006,2.709,8.676,4.143,13.502,4.143c8.035,0,15.516-3.971,20.012-10.623l84.963-125.707c5.426-8.025,5.355-18.174,0.666-25.977
		l94.893-52.303C441.729,213.2,445.986,198.491,439.563,186.835z M101.947,243.247c-1.98,1.139-4.512,0.457-5.652-1.52
		L20.563,110.254c-1.139-1.977-0.457-4.512,1.519-5.65L153.555,28.87c1.979-1.137,4.512-0.457,5.65,1.519l48.164,83.613
		l-6.715,3.703c-5.646,3.111-9.744,8.234-11.535,14.43c-1.793,6.193-1.066,12.713,2.047,18.359l17.301,31.393l-1.35,0.777
		l-4.791-3.238c-4.008-2.707-8.676-4.139-13.502-4.139c-8.035,0-15.516,3.969-20.012,10.619l-20.83,30.82L101.947,243.247z
		 M317.945,286.704l-84.961,125.705c-0.773,1.143-2.059,1.824-3.443,1.824c-0.83,0-1.604-0.24-2.303-0.711l-125.707-84.965
		c-1.234-0.834-1.623-2.012-1.744-2.641c-0.121-0.629-0.201-1.867,0.633-3.102l84.963-125.709c0.771-1.139,2.057-1.818,3.441-1.818
		c0.83,0,1.605,0.238,2.303,0.709l125.707,84.961C318.725,282.237,319.223,284.813,317.945,286.704z M420.42,202.108
		l-101.645,56.023l-72.43-48.953l-37.664-68.338c-0.721-1.305-0.529-2.531-0.352-3.146c0.178-0.615,0.672-1.754,1.977-2.473
		l132.881-73.238c1.996-1.102,4.518-0.373,5.619,1.625l73.24,132.881C423.147,198.487,422.418,201.006,420.42,202.108z"/>
	<path d="M348.242,92.741c-3.609-6.545-11.875-8.934-18.426-5.328l-33.484,18.457c-4.838,2.666-6.598,8.748-3.932,13.584
		c2.666,4.838,8.748,6.6,13.586,3.932l27.848-15.35l15.35,27.85c1.822,3.305,5.24,5.174,8.766,5.174c1.633,0,3.287-0.4,4.818-1.244
		c4.838-2.666,6.598-8.748,3.932-13.584L348.242,92.741z"/>
	<path d="M173.139,333.723l-26.348-17.805l17.809-26.346c3.092-4.576,1.891-10.793-2.686-13.885
		c-4.576-3.092-10.791-1.893-13.885,2.686l-21.412,31.678c-4.188,6.195-2.553,14.645,3.643,18.834l31.68,21.408
		c1.717,1.16,3.664,1.717,5.59,1.717c3.209,0,6.361-1.543,8.295-4.402C178.916,343.032,177.713,336.817,173.139,333.723z"/>
</g>
<g>
</g>
<g>
</g>
<g>
</g>
<g>
</g>
<g>
</g>
<g>
</g>
<g>
</g>
<g>
</g>
<g>
</g>
<g>
</g>
<g>
</g>
<g>
</g>
<g>
</g>
<g>
</g>
<g>
</g>
</svg>
