<svg id="Layer_1" height="512" viewBox="0 0 128 128" width="512" xmlns="http://www.w3.org/2000/svg" data-name="Layer 1"><path d="m126.25-.112h-124.5a1.75 1.75 0 0 0 -1.75 1.75v11.25a7.759 7.759 0 0 0 7.75 7.75h2.537l8.328 49.312a2.926 2.926 0 0 0 5.77 0l3.892-23.044 8.606 50.961a2.918 2.918 0 0 0 2.885 2.438h.932a2.918 2.918 0 0 0 2.885-2.439l13.047-77.228h5.139l5.688 20.7a6.2 6.2 0 0 0 11.965 0l2.6-9.449 11.135 65.965a2.931 2.931 0 0 0 2.9 2.451h.913a2.931 2.931 0 0 0 2.9-2.451l8.6-50.948 3.89 23.033a2.939 2.939 0 0 0 5.784.067l9.82-50.786a1.724 1.724 0 0 0 .032-.332v-17.25a1.75 1.75 0 0 0 -1.748-1.75zm-1.75 18.832-9.2 47.58-5.1-30.2a1.75 1.75 0 0 0 -3.451 0l-10.235 60.6-12.361-73.2a1.751 1.751 0 0 0 -1.638-1.457 1.793 1.793 0 0 0 -1.775 1.284l-4.692 17.083a2.7 2.7 0 0 1 -5.215 0l-6.041-21.986a1.75 1.75 0 0 0 -1.692-1.286h-7.948a1.75 1.75 0 0 0 -1.725 1.462l-13.192 78.1-10.235-60.595a1.75 1.75 0 0 0 -3.451 0l-5.049 29.908-8.008-47.413a1.75 1.75 0 0 0 -1.726-1.459h-4.016a4.254 4.254 0 0 1 -4.25-4.25v-9.5h121z"/><path d="m82.417 78.011c0-5.2-8.017-14.477-8.931-15.518a1.807 1.807 0 0 0 -2.629 0c-.914 1.041-8.931 10.315-8.931 15.518a10.245 10.245 0 0 0 20.49 0zm-10.245 6.745a6.752 6.752 0 0 1 -6.745-6.745c0-2.546 3.724-7.947 6.745-11.65 3.021 3.7 6.745 9.1 6.745 11.65a6.752 6.752 0 0 1 -6.745 6.745z"/><path d="m58.755 107.905c-1.146 1.306-6.865 8.02-6.865 12.026a8.18 8.18 0 1 0 16.36 0c0-4.007-5.72-10.721-6.866-12.026a1.807 1.807 0 0 0 -2.629 0zm1.314 16.707a4.686 4.686 0 0 1 -4.68-4.681c0-1.657 2.43-5.324 4.681-8.143 2.25 2.816 4.68 6.482 4.68 8.143a4.686 4.686 0 0 1 -4.681 4.681z"/><path d="m82.483 96.477c-1.146 1.306-6.866 8.02-6.866 12.026a8.181 8.181 0 1 0 16.361 0c0-4.007-5.72-10.721-6.866-12.026a1.807 1.807 0 0 0 -2.629 0zm1.317 16.707a4.686 4.686 0 0 1 -4.681-4.681c0-1.657 2.431-5.324 4.681-8.143 2.251 2.816 4.681 6.482 4.681 8.143a4.686 4.686 0 0 1 -4.681 4.681z"/><path d="m113.123 107.905c-1.146 1.306-6.865 8.02-6.865 12.026a8.18 8.18 0 1 0 16.36 0c0-4.007-5.72-10.721-6.866-12.026a1.807 1.807 0 0 0 -2.629 0zm1.314 16.707a4.686 4.686 0 0 1 -4.68-4.681c0-1.657 2.43-5.324 4.681-8.143 2.25 2.816 4.68 6.482 4.68 8.143a4.686 4.686 0 0 1 -4.681 4.681z"/><path d="m19.724 88.748c-1.146 1.306-6.866 8.02-6.866 12.027a8.181 8.181 0 0 0 16.361 0c0-4.008-5.72-10.722-6.866-12.027a1.807 1.807 0 0 0 -2.629 0zm1.314 16.707a4.686 4.686 0 0 1 -4.681-4.68c0-1.657 2.431-5.325 4.681-8.144 2.251 2.816 4.681 6.482 4.681 8.144a4.686 4.686 0 0 1 -4.681 4.68z"/></svg>